<svg xmlns="http://www.w3.org/2000/svg" width="25" height="25" id="allignment"><g fill="#fff" transform="translate(4.417 -1032.375)"><circle cx="8.083" cy="1044.875" r="12.5" fill="#239fdb" fill-rule="evenodd"></circle><path style="line-height:normal;text-indent:0;text-align:start;text-decoration-line:none;text-decoration-style:solid;text-decoration-color:#000;text-transform:none;block-progression:tb;isolation:auto;mix-blend-mode:normal" fill="#0b5ecd" d="M15.6 24.6a12.5 12.5 0 0 0 .244-.055 12.5 12.5 0 0 0 1.185-.395 12.5 12.5 0 0 0 1.14-.51 12.5 12.5 0 0 0 1.085-.622 12.5 12.5 0 0 0 1.016-.727 12.5 12.5 0 0 0 .939-.824 12.5 12.5 0 0 0 .852-.914 12.5 12.5 0 0 0 .755-.994 12.5 12.5 0 0 0 .655-1.067 12.5 12.5 0 0 0 .543-1.125 12.5 12.5 0 0 0 .427-1.174 12.5 12.5 0 0 0 .153-.6L17 8H8v1l3 3H8v1l3 3H8v1l7.6 7.6z" color="#000" font-family="sans-serif" font-weight="400" transform="translate(-4.417 1032.375)"></path><path style="line-height:normal;text-indent:0;text-align:start;text-decoration-line:none;text-decoration-style:solid;text-decoration-color:#000;text-transform:none;block-progression:tb;isolation:auto;mix-blend-mode:normal" d="M3 3v1h9V3H3Zm4 2v1h5V5H7ZM3 7v1h9V7H3Zm4 2v1h5V9H7zm-4 2v1h9v-1H3z" color="#000" font-family="sans-serif" font-weight="400" overflow="visible" transform="translate(.583 1037.375)"></path></g></svg>